<?xml version="1.0" encoding="UTF-8" standalone="no"?>
<svg width="265px" height="194px" viewBox="0 0 265 194" version="1.1" xmlns="http://www.w3.org/2000/svg" xmlns:xlink="http://www.w3.org/1999/xlink">
    <!-- Generator: Sketch 3.7.1 (28215) - http://www.bohemiancoding.com/sketch -->
    <title>Group 2</title>
    <desc>Created with Sketch.</desc>
    <defs></defs>
    <g id="Page-1" stroke="none" stroke-width="1" fill="none" fill-rule="evenodd">
        <g id="Artboard-3" transform="translate(-355.000000, -124.000000)" stroke="#D3D3D3" stroke-width="11">
            <g id="Group-2" transform="translate(360.000000, 130.000000)">
                <g id="Group" transform="translate(139.000000, 0.000000)">
                    <ellipse id="Oval-1" cx="46" cy="131.5" rx="46" ry="50.5"></ellipse>
                    <path d="M115.5,128.5 C115.5,128.5 95.5234375,42.2070304 90.6308594,19.6679682 C85.7382812,-2.87109399 65.7617188,0.605468642 65.7617188,0.605468642" id="Line" stroke-linecap="round"></path>
                    <path d="M112.5,128.5 L95.5,128.5" id="Line" stroke-linecap="round"></path>
                </g>
                <path d="M120.5,128.5 L136.5,128.5" id="Line" stroke-linecap="square"></path>
                <g id="Group" transform="translate(58.000000, 91.000000) scale(-1, 1) translate(-58.000000, -91.000000) ">
                    <ellipse id="Oval-1" cx="46" cy="131.5" rx="46" ry="50.5"></ellipse>
                    <path d="M115.5,128.5 C115.5,128.5 95.5234375,42.2070304 90.6308594,19.6679682 C85.7382812,-2.87109399 65.7617188,0.605468642 65.7617188,0.605468642" id="Line" stroke-linecap="round"></path>
                    <path d="M112.5,128.5 L95.5,128.5" id="Line" stroke-linecap="round"></path>
                </g>
            </g>
        </g>
    </g>
</svg>