<?xml version="1.0" encoding="UTF-8" standalone="no"?>
<svg width="298px" height="194px" viewBox="0 0 298 194" version="1.1" xmlns="http://www.w3.org/2000/svg" xmlns:xlink="http://www.w3.org/1999/xlink">
    <!-- Generator: Sketch 3.7.1 (28215) - http://www.bohemiancoding.com/sketch -->
    <title>Group 2</title>
    <desc>Created with Sketch.</desc>
    <defs></defs>
    <g id="Page-1" stroke="none" stroke-width="1" fill="none" fill-rule="evenodd">
        <g id="Artboard-3" transform="translate(-391.000000, -178.000000)" stroke="#D3D3D3" stroke-width="11">
            <g id="Group-2" transform="translate(396.000000, 184.000000)">
                <g id="Group" transform="translate(156.988235, 0.000000)">
                    <ellipse id="Oval-1" cx="51.9529412" cy="131.5" rx="51.9529412" ry="50.5"></ellipse>
                    <path d="M130.447059,128.5 C130.447059,128.5 107.885294,42.2070304 102.359559,19.6679682 C96.8338235,-2.87109399 74.2720588,0.605468642 74.2720588,0.605468642" id="Line" stroke-linecap="round"></path>
                    <path d="M127.058824,128.5 L107.858824,128.5" id="Line" stroke-linecap="round"></path>
                </g>
                <path d="M136.094118,128.5 L154.164706,128.5" id="Line" stroke-linecap="square"></path>
                <g id="Group" transform="translate(65.511765, 91.000000) scale(-1, 1) translate(-65.511765, -91.000000) translate(0.011765, 0.000000)">
                    <ellipse id="Oval-1" cx="51.9529412" cy="131.5" rx="51.9529412" ry="50.5"></ellipse>
                    <path d="M130.447059,128.5 C130.447059,128.5 107.885294,42.2070304 102.359559,19.6679682 C96.8338235,-2.87109399 74.2720588,0.605468642 74.2720588,0.605468642" id="Line" stroke-linecap="round"></path>
                    <path d="M127.058824,128.5 L107.858824,128.5" id="Line" stroke-linecap="round"></path>
                </g>
            </g>
        </g>
    </g>
</svg>