<?xml version="1.0" encoding="UTF-8" standalone="no"?>
<svg width="351px" height="229px" viewBox="0 0 351 229" version="1.1" xmlns="http://www.w3.org/2000/svg" xmlns:xlink="http://www.w3.org/1999/xlink">
    <!-- Generator: Sketch 3.7.1 (28215) - http://www.bohemiancoding.com/sketch -->
    <title>Group 2</title>
    <desc>Created with Sketch.</desc>
    <defs></defs>
    <g id="Page-1" stroke="none" stroke-width="1" fill="none" fill-rule="evenodd">
        <g id="Artboard-3" transform="translate(-208.000000, -82.000000)" stroke="#D3D3D3" stroke-width="15">
            <g id="Group-2" transform="translate(215.000000, 89.000000)">
                <g id="Group" transform="translate(184.629229, 0.000000)">
                    <circle id="Oval-1" cx="60.5" cy="153.923655" r="60.5"></circle>
                    <path d="M150.950085,154.554811 C150.950085,154.554811 124.669216,50.7649774 118.232613,23.6558685 C111.79601,-3.45324037 85.5151407,0.728234175 85.5151407,0.728234175" id="Line" stroke-linecap="round"></path>
                    <path d="M148.003329,156.231651 L125.638382,156.231651" id="Line" stroke-linecap="round"></path>
                </g>
                <g id="Group" transform="translate(75.629229, 107.500000) scale(-1, 1) translate(-75.629229, -107.500000) translate(0.629229, 0.000000)">
                    <ellipse id="Oval-1" cx="60.0993377" cy="153.923655" rx="60.0993377" ry="60.5"></ellipse>
                    <path d="M149.950415,154.554811 C149.950415,154.554811 123.843592,50.7649774 117.449615,23.6558685 C111.055639,-3.45324037 84.9488152,0.728234175 84.9488152,0.728234175" id="Line" stroke-linecap="round"></path>
                    <path d="M147.023175,156.231651 L124.80634,156.231651" id="Line" stroke-linecap="round"></path>
                </g>
                <path d="M160.290904,151.208716 L181.340266,151.208716" id="Line" stroke-linecap="square"></path>
            </g>
        </g>
    </g>
</svg>